#N canvas 549 114 411 141 12;
#N canvas 0 23 822 694 CORE 0;
#X obj 67 440 r \$0_to_output;
#X obj 99 638 outlet;
#X obj 97 23 inlet;
#X obj 97 47 tgl 15 0 empty empty empty 17 7 0 10 -262144 -1 -1 0 1
;
#X obj 97 95 metro 250;
#X obj 97 119 f 0;
#X obj 97 143 t f f;
#X obj 147 143 + 1;
#X obj 147 167 % 8;
#X msg 178 96 0;
#X obj 97 71 t f f;
#X obj 178 71 sel 1;
#X obj 271 136 sel 0 1 2 3 4 5 6 7, f 46;
#X floatatom 271 203 5 0 0 0 - - -;
#X obj 271 276 f;
#X obj 271 300 s \$0_to_output;
#X floatatom 311 203 5 0 0 0 - - -;
#X obj 311 326 f;
#X obj 311 350 s \$0_to_output;
#X floatatom 351 203 5 0 0 0 - - -;
#X obj 351 376 f;
#X obj 351 400 s \$0_to_output;
#X floatatom 391 203 5 0 0 0 - - -;
#X obj 391 426 f;
#X obj 391 450 s \$0_to_output;
#X floatatom 431 203 5 0 0 0 - - -;
#X obj 431 276 f;
#X obj 431 300 s \$0_to_output;
#X floatatom 471 203 5 0 0 0 - - -;
#X obj 471 326 f;
#X obj 471 350 s \$0_to_output;
#X floatatom 511 203 5 0 0 0 - - -;
#X obj 511 376 f;
#X obj 511 400 s \$0_to_output;
#X floatatom 551 203 5 0 0 0 - - -;
#X obj 551 426 f;
#X obj 551 450 s \$0_to_output;
#X obj 97 187 t f f;
#X obj 67 482 pack;
#X obj 67 531 t a b;
#X msg 67 506 STEP: \$2 || VALUE: \$1;
#X obj 67 578 print -n;
#X connect 0 0 38 0;
#X connect 2 0 3 0;
#X connect 3 0 10 0;
#X connect 4 0 5 0;
#X connect 5 0 6 0;
#X connect 6 0 37 0;
#X connect 6 1 7 0;
#X connect 7 0 8 0;
#X connect 8 0 5 1;
#X connect 9 0 5 1;
#X connect 10 0 4 0;
#X connect 10 1 11 0;
#X connect 11 0 9 0;
#X connect 12 0 14 0;
#X connect 12 1 17 0;
#X connect 12 2 20 0;
#X connect 12 3 23 0;
#X connect 12 4 26 0;
#X connect 12 5 29 0;
#X connect 12 6 32 0;
#X connect 12 7 35 0;
#X connect 13 0 14 1;
#X connect 14 0 15 0;
#X connect 16 0 17 1;
#X connect 17 0 18 0;
#X connect 19 0 20 1;
#X connect 20 0 21 0;
#X connect 22 0 23 1;
#X connect 23 0 24 0;
#X connect 25 0 26 1;
#X connect 26 0 27 0;
#X connect 28 0 29 1;
#X connect 29 0 30 0;
#X connect 31 0 32 1;
#X connect 32 0 33 0;
#X connect 34 0 35 1;
#X connect 35 0 36 0;
#X connect 37 0 12 0;
#X connect 37 1 38 1;
#X connect 38 0 40 0;
#X connect 39 0 41 0;
#X connect 39 1 1 0;
#X connect 40 0 39 0;
#X coords 0 -1 1 1 320 25 2 270 200;
#X restore 60 52 pd CORE;
#X obj 60 30 tgl 15 0 empty empty empty 17 7 0 10 -262144 -1 -1 0 1
;
#X obj 60 90 bng 15 250 50 0 empty empty empty 17 7 0 10 -262144 -1
-1;
#X connect 0 0 2 0;
#X connect 1 0 0 0;
